<svg width="100%" height="100%" viewBox="0 0 1440 320" xmlns="http://www.w3.org/2000/svg" preserveAspectRatio="none">
  <!-- 심해 곡선 레이어 -->
  <path fill="#083344" fill-opacity="1" d="M0,160 C360,280 1080,80 1440,160 L1440,320 L0,320 Z" />
  <path fill="#0a3749" fill-opacity="0.8" d="M0,200 C480,120 960,220 1440,140 L1440,320 L0,320 Z" />
  <path fill="#0d3b5a" fill-opacity="0.6" d="M0,240 C500,180 940,260 1440,200 L1440,320 L0,320 Z" />

  <!-- 심해 기포 -->
  <circle cx="100" cy="260" r="2" fill="#83a598" opacity="0.3" />
  <circle cx="200" cy="240" r="1.5" fill="#83a598" opacity="0.2" />
  <circle cx="400" cy="220" r="2" fill="#83a598" opacity="0.25" />
  <circle cx="900" cy="260" r="1.8" fill="#83a598" opacity="0.2" />
  <circle cx="1200" cy="230" r="1.6" fill="#83a598" opacity="0.15" />

  <!-- 형광 심해 생물 실루엣 -->
  <path d="M1300 280 q10 -20 20 0 q-10 20 -20 0" fill="#00ffc3" opacity="0.05" />
  <path d="M200 300 q10 -15 20 0 q-10 15 -20 0" fill="#00ffc3" opacity="0.05" />
</svg>