<svg width="100%" height="100%" viewBox="0 0 1440 320" xmlns="http://www.w3.org/2000/svg" preserveAspectRatio="none">
  <!-- 은하수 흐름 -->
  <path fill="#6c5ce7" fill-opacity="0.3" d="M0,160 C360,240 1080,80 1440,160 L1440,320 L0,320 Z" />
  <path fill="#00cec9" fill-opacity="0.15" d="M0,200 C480,100 960,200 1440,100 L1440,320 L0,320 Z" />
  <path fill="#ffffff" fill-opacity="0.05" d="M0,180 C400,280 1040,120 1440,200 L1440,320 L0,320 Z" />

  <!-- 별빛 점들 -->
  <circle cx="100" cy="50" r="1.5" fill="#ffffff" opacity="0.8" />
  <circle cx="300" cy="80" r="2" fill="#ffffff" opacity="0.7" />
  <circle cx="600" cy="40" r="1.2" fill="#ffffff" opacity="0.6" />
  <circle cx="900" cy="100" r="1.8" fill="#ffffff" opacity="0.9" />
  <circle cx="1200" cy="60" r="1.4" fill="#ffffff" opacity="0.6" />
  <circle cx="1350" cy="30" r="1.6" fill="#ffffff" opacity="0.75" />
  <circle cx="500" cy="200" r="1.5" fill="#ffffff" opacity="0.4" />
  <circle cx="700" cy="250" r="2" fill="#ffffff" opacity="0.3" />
  <circle cx="1000" cy="220" r="1.2" fill="#ffffff" opacity="0.5" />
</svg>
