<svg width="100%" height="100%" viewBox="0 0 1440 320" xmlns="http://www.w3.org/2000/svg" preserveAspectRatio="none">
  <!-- 별똥별 곡선 (은은한 층들) -->
  <path fill="#ffffff" fill-opacity="0.2" d="M0,160 C360,240 1080,80 1440,160 L1440,320 L0,320 Z" />
  <path fill="#ffffff" fill-opacity="0.1" d="M0,200 C480,100 960,200 1440,100 L1440,320 L0,320 Z" />
  <path fill="#ffffff" fill-opacity="0.05" d="M0,180 C400,280 1040,120 1440,200 L1440,320 L0,320 Z" />

  <!-- 별들 -->
  <circle cx="100" cy="40" r="1.5" fill="#ffffff" opacity="0.9" />
  <circle cx="300" cy="60" r="1.2" fill="#ffffff" opacity="0.8" />
  <circle cx="500" cy="20" r="1.8" fill="#ffffff" opacity="0.7" />
  <circle cx="700" cy="90" r="1.5" fill="#ffffff" opacity="0.85" />
  <circle cx="950" cy="50" r="1.4" fill="#ffffff" opacity="0.75" />
  <circle cx="1200" cy="80" r="1.6" fill="#ffffff" opacity="0.6" />
  <circle cx="1350" cy="30" r="1.3" fill="#ffffff" opacity="0.7" />

  <!-- 흐릿한 큰 별 -->
  <circle cx="400" cy="180" r="3.5" fill="#ffffff" opacity="0.15" />
  <circle cx="1100" cy="200" r="4" fill="#ffffff" opacity="0.12" />
</svg>
